<!DOCTYPE svg PUBLIC "-//W3C//DTD SVG 20010904//EN" "http://www.w3.org/TR/2001/REC-SVG-20010904/DTD/svg10.dtd">
<svg version="1.0" xmlns="http://www.w3.org/2000/svg" width="512px" height="512px" viewBox="0 0 5120 5120" preserveAspectRatio="xMidYMid meet">
<g id="layer101" fill="#181819" stroke="none">
 <path d="M1373 4115 c-160 -35 -305 -168 -354 -326 -18 -58 -19 -111 -19 -1230 0 -1149 0 -1171 20 -1230 44 -131 178 -265 310 -309 58 -20 83 -20 1229 -20 1119 0 1172 1 1230 19 160 50 292 194 326 358 22 101 22 2265 0 2366 -39 183 -189 333 -372 372 -98 21 -2275 21 -2370 0z"/>
 </g>
<g id="layer102" fill="#484d4f" stroke="none">
 <path d="M1370 3920 c-41 -14 -68 -32 -107 -74 -89 -95 -83 -4 -83 -1286 0 -1293 -7 -1196 89 -1291 95 -96 -2 -89 1291 -89 1293 0 1196 -7 1291 89 96 95 89 -2 89 1291 0 1291 7 1193 -88 1290 -95 97 4 90 -1296 90 -1083 -1 -1133 -1 -1186 -20z m2249 -554 l26 -26 3 -882 c3 -964 6 -905 -55 -945 -25 -17 -90 -18 -1018 -20 -615 0 -1002 3 -1022 9 -18 5 -44 23 -58 40 l-25 30 2 885 3 885 30 26 30 27 1029 -1 1028 -2 27 -26z"/>
 <path d="M2723 3248 c-50 -13 -67 -47 -60 -118 4 -33 3 -60 -1 -60 -4 1 -18 7 -32 15 -53 30 -176 9 -199 -34 -36 -66 -14 -168 42 -198 43 -23 126 -22 161 1 35 22 56 72 56 131 0 25 4 45 9 45 13 0 125 -184 166 -273 28 -61 99 -195 150 -282 68 -115 97 -138 168 -132 91 8 112 68 59 168 -16 30 -48 97 -71 149 -65 145 -97 212 -178 375 -79 160 -121 214 -170 216 -16 1 -37 2 -48 4 -11 1 -35 -2 -52 -7z"/>
 <path d="M1868 3081 c-146 -30 -188 -111 -188 -361 0 -208 32 -299 123 -351 40 -23 49 -24 232 -24 173 0 193 2 225 20 70 42 117 165 96 249 -9 35 -54 56 -120 56 -44 0 -60 -5 -85 -26 -17 -14 -31 -32 -31 -40 0 -8 -9 -23 -20 -34 -27 -27 -108 -28 -141 -1 -23 18 -24 25 -24 133 1 129 10 154 58 163 57 11 100 -6 120 -47 23 -47 86 -74 152 -65 90 13 114 52 101 165 -9 73 -32 111 -87 142 -42 24 -53 25 -209 27 -91 1 -182 -2 -202 -6z"/>
 <path d="M2485 2716 c-46 -20 -70 -82 -57 -146 11 -51 59 -80 132 -80 49 0 60 4 84 29 53 56 40 166 -24 198 -32 16 -97 16 -135 -1z"/>
 <path d="M2015 2070 c-44 -5 -167 -11 -272 -15 l-193 -8 0 -212 c0 -195 2 -215 19 -236 l19 -24 972 0 972 0 19 24 c17 21 19 41 19 236 l0 212 -202 7 c-112 4 -248 11 -303 16 -116 11 -932 10 -1050 0z"/>
 </g>
<g id="layer103" fill="#6f797f" stroke="none">
 <path d="M1440 3930 c-95 -12 -181 -74 -226 -160 -28 -54 -32 -244 -33 -1347 -1 -970 -1 -993 19 -1046 26 -70 75 -125 141 -162 l54 -30 1147 -3 c1130 -2 1147 -2 1200 18 74 27 131 79 165 148 l28 57 0 1150 0 1150 -24 52 c-26 59 -99 132 -157 160 -37 17 -101 18 -1149 19 -610 1 -1135 -2 -1165 -6z m2169 -551 c52 -49 51 -26 51 -931 0 -807 -1 -845 -19 -885 -36 -78 41 -73 -1081 -73 -1122 0 -1045 -5 -1081 73 -18 40 -19 78 -19 885 0 912 -1 892 53 934 21 16 91 18 1048 18 l1025 0 23 -21z"/>
 <path d="M2724 3197 c-32 -16 -21 -76 31 -167 23 -41 86 -162 139 -268 53 -107 121 -236 151 -287 62 -104 75 -112 165 -100 28 4 50 8 50 8 -2 21 -38 113 -74 184 -25 51 -46 96 -46 100 0 13 -209 424 -242 476 -17 26 -39 52 -49 57 -23 13 -98 11 -125 -3z"/>
 <path d="M1836 3050 c-48 -15 -95 -69 -114 -130 -23 -76 -22 -345 1 -408 24 -64 52 -98 100 -121 38 -19 62 -21 205 -21 194 0 226 9 271 76 34 52 48 113 31 143 -6 12 -9 25 -6 30 10 16 -94 28 -139 15 -11 -3 -33 -27 -48 -55 l-28 -49 -77 0 c-42 0 -82 4 -88 8 -27 17 -34 56 -34 176 0 116 2 127 23 152 18 20 35 28 73 31 67 6 99 -9 131 -62 24 -38 33 -45 69 -51 24 -3 61 -3 83 1 38 6 40 8 47 51 12 79 -17 159 -70 197 -29 21 -42 22 -216 24 -102 1 -198 -2 -214 -7z"/>
 <path d="M2481 3043 c-45 -37 -36 -139 15 -162 32 -14 86 -14 118 0 19 9 27 22 32 55 8 55 -3 102 -26 114 -31 17 -115 12 -139 -7z"/>
 <path d="M2503 2688 c-33 -11 -43 -30 -43 -88 0 -79 3 -81 93 -78 l81 3 7 35 c4 19 5 54 2 76 -5 38 -9 43 -43 53 -43 13 -54 13 -97 -1z"/>
 <path d="M1858 1863 l-308 -3 0 -108 c0 -130 5 -149 41 -167 42 -22 1896 -22 1938 0 36 18 41 37 41 166 l0 106 -482 6 c-265 4 -581 6 -702 5 -122 -2 -359 -4 -528 -5z"/>
 </g>
<g id="layer104" fill="#a4abae" stroke="none">
 <path d="M1788 3933 l-368 -3 0 -118 0 -118 -43 -11 c-60 -16 -138 -88 -168 -155 l-24 -53 0 -1035 0 -1035 28 -57 c32 -64 80 -111 146 -142 46 -21 48 -21 1201 -21 l1155 0 46 21 c60 28 118 86 149 149 l25 50 0 960 c1 528 -2 810 -5 627 l-5 -332 -117 117 -118 118 -3 190 c-1 105 -3 -210 -5 -698 l-2 -889 -34 -34 c-31 -31 -40 -34 -90 -34 -56 0 -56 0 -56 30 l0 30 -935 0 -935 0 0 -30 0 -30 -61 0 c-56 0 -64 3 -95 34 l-34 34 0 910 c0 907 0 909 21 936 46 59 5 56 901 56 l823 0 -115 115 -115 115 380 0 c360 0 382 -1 425 -21 79 -35 136 -101 167 -194 l13 -40 -4 52 c-3 28 -15 75 -27 103 -25 58 -102 133 -154 150 l-35 12 0 113 c0 63 -3 116 -7 118 -11 7 -1482 14 -1925 10z"/>
 <path d="M2700 3184 c0 -4 91 -186 202 -405 l201 -399 79 0 c43 0 78 3 78 8 0 4 -90 185 -199 402 l-198 395 -82 3 c-44 2 -81 0 -81 -4z"/>
 <path d="M1864 3041 c-59 -10 -93 -36 -117 -89 -20 -43 -22 -63 -22 -237 0 -174 2 -194 22 -237 38 -82 56 -88 285 -88 l197 0 35 31 c40 35 56 79 56 157 l0 52 -79 0 -78 0 -7 -32 c-3 -18 -13 -42 -21 -55 -14 -21 -22 -23 -109 -23 -129 0 -126 -4 -126 192 0 149 1 155 23 176 20 19 35 22 104 22 76 0 83 -2 102 -26 11 -14 23 -41 27 -60 l6 -34 78 0 c53 0 79 4 83 13 9 25 -13 152 -31 176 -45 61 -60 65 -230 67 -86 2 -176 -1 -198 -5z"/>
 <path d="M2503 3043 l-33 -4 0 -75 0 -75 83 3 82 3 3 64 c2 35 -1 67 -5 72 -11 10 -90 18 -130 12z"/>
 <path d="M2470 2606 c0 -85 1 -86 90 -86 69 0 80 12 80 84 0 74 -2 76 -91 76 l-79 0 0 -74z"/>
 <path d="M1550 1701 c0 -71 16 -108 52 -120 43 -15 1873 -15 1916 0 36 12 52 49 52 120 l0 49 -1010 0 -1010 0 0 -49z"/>
 </g>
<g id="layer105" fill="#e9ebec" stroke="none">
 <path d="M1920 3816 l0 -114 -257 -4 c-279 -5 -288 -7 -370 -67 -28 -20 -51 -50 -72 -93 l-30 -63 -3 -1030 -3 -1030 23 -50 c30 -65 85 -122 147 -151 l50 -24 1145 0 1145 0 -100 100 -100 100 50 0 c32 0 62 7 83 20 33 20 67 81 58 103 -2 7 -5 5 -5 -4 -1 -8 -17 -31 -37 -50 l-35 -34 -132 -3 c-73 -2 -187 -1 -254 3 l-123 7 0 29 0 29 -535 0 -535 0 0 -29 0 -29 -122 -7 c-68 -4 -184 -5 -258 -3 -116 3 -139 6 -162 23 -61 45 -58 0 -58 970 0 637 3 892 11 908 6 12 21 32 32 45 l21 23 -93 93 c-153 153 -237 142 1164 147 l1150 4 46 -21 c64 -30 113 -77 144 -137 27 -52 27 -52 22 -15 -13 86 -74 165 -162 208 -48 23 -60 24 -297 28 l-248 4 0 114 0 114 -650 0 -650 0 0 -114z"/>
 <path d="M2710 3178 c1 -7 90 -188 198 -403 l197 -390 78 -3 77 -3 -202 406 -203 405 -72 0 c-52 0 -73 -4 -73 -12z"/>
 <path d="M1824 3026 c-78 -34 -98 -99 -98 -311 0 -170 9 -223 46 -270 37 -48 71 -55 260 -55 145 0 179 3 207 18 45 22 70 73 78 156 l6 66 -80 0 -80 0 -6 -47 c-3 -29 -12 -52 -23 -60 -20 -15 -190 -18 -212 -4 -21 13 -32 77 -32 196 0 119 11 183 32 196 19 12 186 11 208 -1 13 -7 21 -26 26 -60 l7 -50 80 0 80 0 -6 66 c-8 85 -32 134 -77 156 -29 15 -63 18 -210 18 -124 -1 -184 -5 -206 -14z"/>
 <path d="M2470 2965 l0 -75 80 0 80 0 0 75 0 75 -80 0 -80 0 0 -75z"/>
 <path d="M2477 2673 c-4 -3 -7 -37 -7 -75 l0 -68 80 0 80 0 0 75 0 75 -73 0 c-41 0 -77 -3 -80 -7z"/>
 </g>

</svg>